<svg width="415" height="328" viewBox="0 0 415 328" fill="none" xmlns="http://www.w3.org/2000/svg">
<rect width="415" height="328" fill="#1E1E1E"/>
<g id="Global-logistics-delivery-network 1">
<path id="Vector" d="M389.973 68.3003C389.973 68.3003 371.677 25.9752 308.484 15.7302C301.977 14.6844 295.415 14.0141 288.831 13.7225C279.56 13.3224 270.273 13.5245 261.029 14.3277C257.236 14.6479 253.342 15.0674 249.347 15.5861C249.347 15.5861 236.558 17.9877 221.66 22.3105C210.975 25.3989 199.212 29.5151 190.311 34.3951C190.311 34.3951 173.893 41.3836 157.902 39.1982C147.49 37.7861 136.959 37.4403 126.529 38.7179C113.586 40.3222 96.5454 43.521 79.1786 49.8323C20.6934 71.1437 -9.88894 134.804 9.20348 193.594C9.63969 194.925 10.0999 196.26 10.584 197.591C12.1563 201.913 13.9394 206.275 16.0294 210.65C33.4249 247.461 69.5869 283.864 144.701 272.462C144.701 272.462 177.57 269.613 199.591 272.774C199.591 272.774 333.161 294.676 392.054 216.227C392.054 216.227 437.088 158.503 389.973 68.3003Z" fill="#5368DF"/>
<path id="Vector_2" opacity="0.7" d="M392.054 216.227C391.704 216.707 391.349 217.154 390.999 217.61C388.938 220.274 386.792 222.821 384.561 225.252C369.289 241.933 350.317 253.273 330.395 260.9C327.177 262.12 323.94 263.256 320.684 264.306C273.142 279.561 222.772 275.593 205.669 273.59C201.757 273.11 199.586 272.774 199.586 272.774C198.412 272.606 197.189 272.452 195.967 272.293C174.142 269.892 144.677 272.442 144.677 272.442C120.23 276.146 99.9008 274.786 83.0134 270.007C79.25 268.943 75.5486 267.67 71.9261 266.194C49.948 257.226 34.6616 241.976 24.0441 225.266C22.4463 222.746 20.9507 220.199 19.5574 217.624C18.3015 215.316 17.1255 212.996 16.0294 210.665C13.9586 206.294 12.1563 201.913 10.5792 197.61C10.0999 196.275 9.64448 194.939 9.20348 193.609C0.886563 168.112 1.74303 140.502 11.6242 115.573C12.9312 112.262 14.39 109.021 16.0006 105.851C27.9549 82.1952 47.7288 63.4272 71.9501 52.7478C74.2989 51.7072 76.6956 50.7465 79.1403 49.866C80.4393 49.3856 81.7288 48.939 83.023 48.5019C99.0236 43.0744 114.502 40.2357 126.49 38.7515C136.921 37.4595 147.447 37.7909 157.864 39.2319C173.859 41.3981 190.272 34.4287 190.272 34.4287C192.06 33.4393 193.968 32.5075 195.957 31.5469C199.03 30.1059 202.304 28.7899 205.659 27.5411C210.932 25.5766 216.406 23.8331 221.626 22.3201C236.515 17.9973 249.309 15.5957 249.309 15.5957C253.306 15.077 257.2 14.6591 260.99 14.3421C270.235 13.5389 279.522 13.3367 288.793 13.7369C295.376 14.0305 301.938 14.7008 308.446 15.7446C312.738 16.4267 316.817 17.2624 320.684 18.2518C324.068 19.094 327.302 20.0226 330.386 21.0377C376.019 36.0234 389.973 68.3003 389.973 68.3003C396.299 80.2658 401.399 92.842 405.197 105.837C406.156 109.141 406.985 112.382 407.685 115.558C421.749 178.167 392.054 216.227 392.054 216.227Z" fill="white"/>
<g id="Group" opacity="0.7">
<path id="Vector_3" d="M407.685 115.558H11.6242C12.9312 112.247 14.39 109.007 16.0006 105.837H405.197C406.146 109.141 406.976 112.382 407.685 115.558Z" fill="white"/>
<path id="Vector_4" d="M390.999 217.61C388.938 220.274 386.792 222.821 384.561 225.252H24.0441C22.4462 222.732 20.9507 220.184 19.5574 217.61H390.999Z" fill="white"/>
<path id="Vector_5" d="M83.0374 48.4827V270.022C79.2734 268.961 75.5718 267.689 71.9501 266.213V52.7478C74.2989 51.7072 76.6956 50.7465 79.1403 49.866C80.4537 49.376 81.7431 48.9197 83.0374 48.4827Z" fill="white"/>
<path id="Vector_6" d="M205.674 27.5123V273.59C201.762 273.11 199.591 272.774 199.591 272.774C198.416 272.606 197.194 272.452 195.972 272.293V31.5181C199.044 30.1011 202.318 28.7611 205.674 27.5123Z" fill="white"/>
<path id="Vector_7" d="M330.39 21.0184V260.9C327.176 262.12 323.94 263.256 320.684 264.306V18.2518C324.071 19.0812 327.307 20.0034 330.39 21.0184Z" fill="white"/>
</g>
<path id="Vector_8" opacity="0.5" d="M261.153 14.0011L228.021 106.115H205.817V69.0688L221.785 21.9647C236.678 17.6418 249.472 15.2403 249.472 15.2403C253.469 14.7344 257.363 14.3213 261.153 14.0011Z" fill="white"/>
<path id="Vector_9" opacity="0.5" d="M308.475 15.7302C296.405 48.2281 275.016 105.837 275.16 105.837H255.358L288.831 13.7225C295.412 14.0145 301.97 14.6848 308.475 15.7302V15.7302Z" fill="white"/>
<path id="Vector_10" opacity="0.5" d="M52.0907 115.558L16.0294 210.66C13.9586 206.284 12.1563 201.904 10.584 197.6C10.1046 196.27 9.6253 194.934 9.20348 193.604L38.6594 115.558H52.0907Z" fill="white"/>
<path id="Vector_11" opacity="0.5" d="M62.2672 115.558L25.2281 217.615H32.5525L69.189 115.558H62.2672Z" fill="white"/>
<path id="Vector_12" d="M95.9942 214.973C144.661 214.973 184.113 175.442 184.113 126.677C184.113 77.913 144.661 38.3817 95.9942 38.3817C47.3277 38.3817 7.87569 77.913 7.87569 126.677C7.87569 175.442 47.3277 214.973 95.9942 214.973Z" fill="#2F2E41"/>
<g id="Group_2" opacity="0.3">
<path id="Vector_13" d="M85.9806 39.8659C85.936 39.8611 85.891 39.8611 85.8464 39.8659C85.6502 39.8721 85.4547 39.893 85.2616 39.9283L84.5905 40.1733C84.5905 40.1733 84.5186 40.1733 84.533 40.2261C84.5473 40.2789 84.7247 40.4086 85.5923 40.1685C86.0525 40.034 86.0477 39.9235 85.9806 39.8659Z" fill="white"/>
<path id="Vector_14" d="M84.6144 39.1782C84.7488 39.1572 84.8806 39.1221 85.0075 39.0733H84.9548C84.7941 39.0792 84.6341 39.0952 84.4754 39.121C84.4227 39.121 84.346 39.1735 84.3556 39.1925C84.4419 39.2063 84.5302 39.2014 84.6144 39.1782V39.1782Z" fill="white"/>
<path id="Vector_15" d="M87.3707 38.8524C87.5187 38.8716 87.6685 38.8716 87.8165 38.8524C88.0114 38.8469 88.2055 38.8244 88.3965 38.7852C88.3965 38.7852 88.7896 38.7227 88.8758 38.7035C88.9621 38.6843 88.8758 38.7035 88.7991 38.7035C87.8831 38.7177 86.969 38.7898 86.0621 38.9197H86.7619C86.9619 38.876 87.166 38.8535 87.3707 38.8524V38.8524Z" fill="white"/>
<path id="Vector_16" d="M85.8032 39.1406C85.994 39.1016 86.1886 39.0839 86.3832 39.0878C86.5747 39.0973 86.7665 39.0812 86.9537 39.0397H86.9249C85.9031 39.007 84.8824 39.135 83.9002 39.4192C84.5315 39.4113 85.1613 39.3551 85.7841 39.2511C85.7806 39.2132 85.7872 39.1751 85.8032 39.1406V39.1406Z" fill="white"/>
<path id="Vector_17" d="M87.2077 39.496L87.3084 39.4624L87.4809 39.3712L87.8021 39.2463C87.8644 39.2463 87.8692 39.2463 87.8692 39.2078C87.8692 39.1694 87.8692 39.2078 87.8309 39.2078C87.5023 39.2246 87.1786 39.2943 86.8722 39.4144V39.4144C86.9105 39.4144 86.9105 39.4144 86.7332 39.5729C86.8928 39.5574 87.0513 39.5318 87.2077 39.496V39.496Z" fill="white"/>
<path id="Vector_18" d="M82.9655 40.7929C82.9353 40.7881 82.9046 40.7881 82.8744 40.7929C82.7884 40.7833 82.7016 40.7833 82.6156 40.7929C82.3129 40.8369 82.0157 40.9125 81.7288 41.0186V41.0186C82.0881 41.0292 82.4473 40.9937 82.7977 40.913C82.9271 40.8697 83.0518 40.8265 82.9655 40.7929Z" fill="white"/>
<path id="Vector_19" d="M83.0853 42.3923C83.0853 42.3587 83.0374 42.3251 82.8504 42.2914H82.745L81.7863 42.1569C81.1078 42.1284 80.4296 42.2194 79.7826 42.4259C79.7826 42.4259 79.9935 42.4691 80.0558 42.57C80.1182 42.6709 80.1038 42.7669 80.0558 42.7958C79.6357 42.97 79.201 43.1066 78.7568 43.204H78.613C78.613 42.9591 78.9342 42.9783 79.0109 42.7862C78.606 42.7795 78.2058 42.8736 77.8461 43.0599C77.8461 43.0599 77.8077 43.108 77.8125 43.1272V43.6795C77.8221 43.7513 77.8221 43.8239 77.8125 43.8957C77.7694 44.0206 77.6495 44.107 77.6208 44.2511V44.3232C77.7598 44.6306 80.1182 44.1695 80.8372 43.814C81.0002 43.742 81.5802 43.1464 81.3501 43.108C81.1018 43.0629 80.8498 43.042 80.5975 43.0455C81.1583 42.8966 81.7479 42.863 82.3136 42.7189C82.5724 42.6229 82.8313 42.5124 83.0853 42.3923Z" fill="white"/>
<path id="Vector_20" d="M77.4961 40.3462C78.4788 40.2645 79.4135 39.9139 80.3722 39.7938C80.0036 39.8499 79.641 39.9399 79.2889 40.0628L82.7162 39.4432C82.8205 39.4251 82.92 39.3859 83.0086 39.3279C82.9709 39.3184 82.9313 39.3184 82.8936 39.3279C80.6652 39.6029 78.4548 40.0087 76.2738 40.5431C76.7196 40.644 77.1126 40.3894 77.5393 40.3366L77.4961 40.3462Z" fill="white"/>
<path id="Vector_21" d="M75.387 46.3693H75.3439C75.2648 46.3709 75.1868 46.3871 75.1138 46.4173C74.6664 46.6298 74.2071 46.8158 73.738 46.9745C72.9232 47.1474 72.6739 47.2002 72.6068 47.2867C72.6964 47.3193 72.7898 47.3403 72.8848 47.3491C73.1628 47.3779 73.1916 47.3923 73.2299 47.4452C73.2683 47.498 73.2299 47.6757 73.3306 47.7526C73.4612 47.8097 73.6006 47.8439 73.7428 47.8534C74.3708 47.9958 75.0265 47.9541 75.6315 47.7334C75.8184 47.6277 75.7082 46.9168 75.7082 46.912C75.6612 46.7016 75.5487 46.5116 75.387 46.3693V46.3693Z" fill="white"/>
<path id="Vector_22" d="M78.7328 42.0417C78.6624 42.0219 78.5901 42.009 78.5171 42.0032C78.0593 41.9597 77.5981 42.0375 77.1798 42.229C77.2474 42.2275 77.3135 42.2496 77.3667 42.2914C77.4242 42.3491 77.3667 42.3443 77.2612 42.4499C77.1558 42.5556 77.036 42.6853 77.175 42.6853C77.5627 42.6123 77.9407 42.4946 78.3014 42.3347C78.7376 42.1906 78.8527 42.0945 78.7328 42.0417Z" fill="white"/>
<path id="Vector_23" d="M139.265 60.5193C138.968 59.6115 138.263 58.8958 137.99 57.9688C137.932 57.3778 137.932 56.7826 137.99 56.1917C137.923 55.524 138.105 55.3847 138.56 55.1638C139.179 54.8516 138.934 54.5538 138.177 53.6556C135.713 50.7257 135.708 50.6729 135.588 50.1638L135.679 50.0581H135.861C135.267 48.8525 133.192 48.9053 133.331 47.0657L133.076 46.8016L133.23 46.5662H133.374C132.985 46.3645 131.835 45.8986 131.825 45.8986C131.177 45.6542 130.506 45.4772 129.822 45.3702C129.098 45.2502 128.681 44.6017 128.029 44.3472C127.128 43.9917 125.105 43.2761 124.295 43.0071C122.775 42.5652 122.775 42.5652 122.569 42.6181C121.766 42.3436 120.94 42.1427 120.101 42.0177V42.0177C120.511 42.1717 120.906 42.3647 121.28 42.594C121.193 42.594 121.193 42.594 120.153 42.1858C119.786 42.0479 119.412 41.9309 119.032 41.8351C116.704 41.2888 114.31 41.0753 111.923 41.2011C112.033 41.3164 112.033 41.3164 112.589 41.5085C111.995 41.8688 110.806 41.7823 110.192 41.7343C109.039 41.6543 107.882 41.6366 106.727 41.6814C105.533 42.4932 107.446 43.5643 107.475 43.5691C112.675 44.9812 112.719 45.0532 112.968 45.4903C112.968 45.4903 114.406 48.9822 113.155 50.1397C112.647 50.62 112.642 50.62 112.628 50.7113C112.575 51.0427 112.934 51.1916 112.949 51.4894C112.949 51.9697 112.647 52.3396 112.733 52.8295C113.457 52.9063 114.238 52.3972 114.909 53.036C116.06 54.1167 115.043 54.9957 115.029 55.0005C114.243 55.4808 113.236 55.0821 112.474 55.6681C111.875 56.2096 111.484 56.9434 111.367 57.7431C111.367 58.0937 112.953 66.2062 114.631 67.5174C119.056 70.0967 119.195 70.0198 119.616 69.7845C120.316 69.3954 122.694 65.356 122.723 65.3176C123.068 64.722 122.967 63.9247 123.547 63.4348C123.854 63.1802 123.878 63.1802 125.191 63.2378C129.328 63.4252 129.328 63.4252 129.668 62.7575C130.009 62.0899 130.224 61.672 131.006 61.5663C132.923 61.3118 134.84 61.8545 136.758 61.5663C137.551 61.5241 138.341 61.4262 139.121 61.2734C139.121 61.2734 139.49 61.1533 139.265 60.5193Z" fill="white"/>
<path id="Vector_24" d="M90.3954 51.499C90.7693 51.0523 90.7693 50.7834 90.3954 50.7161C90.3954 50.7161 89.2066 50.6248 88.8327 51.0331C88.6266 51.2733 88.8327 52.1474 88.9573 52.33C89.2593 52.767 90.3522 51.5134 90.3954 51.499Z" fill="white"/>
<path id="Vector_25" d="M103.419 38.9052H102.58C103.419 39.0013 106.166 39.1934 106.588 39.2222C104.959 39.2263 103.332 39.1413 101.713 38.9677C101.491 38.9193 101.26 38.9343 101.046 39.0109C100.895 39.2973 100.661 39.5316 100.375 39.6833C99.7091 39.203 97.3651 39.6353 97.2644 39.6833C97.413 39.8178 97.6287 39.8563 97.7438 40.0148L97.691 40.0916C98.1174 40.1731 98.5534 40.1925 98.9853 40.1492C97.2836 40.4326 97.1829 40.1829 97.1158 40.0244C96.0229 39.6689 95.8168 40.058 95.7209 40.2501C94.9588 40.4374 94.1439 40.1973 93.4105 40.5431V40.6392C93.8937 40.8034 94.3967 40.902 94.906 40.9322C95.8024 41.0666 96.7419 40.7304 97.576 41.254C97.4514 41.3933 97.4514 41.3933 97.2117 41.4749C97.7773 41.8111 100.059 41.547 100.054 40.9946L99.8529 40.8697C100.529 40.6095 101.24 40.4478 101.962 40.3894C103.851 40.5815 104.694 40.1396 104.761 40.0003C104.736 39.9783 104.709 39.959 104.68 39.9427C106.444 40.082 107.244 40.1492 107.863 39.9955C107.73 39.9297 107.584 39.8937 107.436 39.8899L111.698 40.0484C110.71 39.8466 110.657 39.8322 110.288 39.7314C111.276 39.813 112.249 40.0003 113.236 40.0868C112.364 39.789 110.84 39.4192 110.84 39.4192C110.84 39.4192 107.086 38.7515 106.223 38.8044C106.245 38.8638 106.28 38.9178 106.324 38.9629C106.089 38.9617 105.859 38.897 105.658 38.7756C105.418 38.6555 102.144 38.3289 101.708 38.5978C101.957 38.7467 101.991 38.7708 103.419 38.9052Z" fill="white"/>
<path id="Vector_26" d="M87.1837 40.01C87.0889 40.0921 86.9897 40.169 86.8865 40.2405C86.6774 40.3562 86.4532 40.4419 86.2203 40.4951L86.4551 40.2357C86.4924 40.196 86.5232 40.1506 86.5462 40.1012C86.4174 40.0658 86.2827 40.0578 86.1506 40.0777C86.0185 40.0975 85.892 40.1448 85.7793 40.2165H85.8799C85.8822 40.2218 85.8833 40.2275 85.8833 40.2333C85.8833 40.2391 85.8822 40.2448 85.8799 40.2501C85.4062 40.3441 84.9248 40.394 84.4419 40.399C84.4946 40.4518 84.5809 40.399 84.6336 40.4614C84.5473 40.5527 84.5473 40.5527 84.5377 40.5719C84.5282 40.5911 84.6049 40.6151 85.8751 40.644C85.2625 40.702 84.6643 40.8644 84.1063 41.1243V41.1243C84.1063 41.1243 85.5923 41.1243 85.7936 41.0714C86.1734 40.9624 86.5437 40.8226 86.9009 40.6536C86.9027 40.6748 86.8997 40.6961 86.8923 40.7161C86.8848 40.736 86.873 40.754 86.8578 40.7688V40.7688C87.3812 40.5286 87.9173 40.317 88.4636 40.1348C88.7129 40.0388 88.732 40.034 88.78 39.9907C88.7416 39.9615 88.6937 39.9478 88.6458 39.9523C88.6458 39.9523 87.3563 39.8851 87.2077 39.9139L87.1837 40.01Z" fill="white"/>
<path id="Vector_27" d="M96.6269 53.7949C97.1877 53.9438 97.8588 55.865 97.8636 55.8891C98.017 56.3694 98.1752 56.8497 98.4628 56.8881C99.2585 57.013 101.377 54.5442 101.396 54.5202C101.464 54.4357 101.516 54.3397 101.55 54.2368L96.5262 51.0763C97.1523 50.9127 97.7966 50.8288 98.4436 50.8266C99.1099 50.7737 99.4359 50.7449 99.4694 50.5864C99.5653 50.1782 98.2854 47.7046 97.4082 47.2242C97.0152 47.0081 96.5358 46.9841 96.2051 46.6479C95.8743 46.3116 96.1475 45.6104 95.5771 45.3606C94.6693 45.1624 93.7369 45.1025 92.8113 45.1829C92.4437 45.2193 92.0729 45.2064 91.7088 45.1445C91.7376 44.6005 91.8609 44.0658 92.0731 43.5643C91.5131 43.2955 90.9119 43.1234 90.2947 43.0551C88.5163 42.863 82.1746 45.255 82.8744 46.206C83.5743 47.157 86.9345 47.6181 87.4282 47.546C87.4618 47.2627 87.4809 47.0657 88.9046 47.402C90.1126 47.6853 90.381 47.4644 90.5679 47.3155C90.8415 47.69 91.0913 48.0815 91.3157 48.4875C91.5698 49.0542 91.5266 49.6978 91.7471 50.2742C92.0204 51.0091 93.1229 51.3213 92.7777 52.3684C92.7777 52.3684 91.7136 54.6258 88.1472 54.4625C87.0831 54.4049 86.0477 53.9822 84.9596 54.1503C84.7639 54.2038 84.5916 54.3212 84.47 54.4839C84.3484 54.6466 84.2845 54.8453 84.2885 55.0485C84.4179 55.2695 84.9596 55.5288 86.8626 55.5624C88.3006 55.5624 88.3006 55.5624 90.266 57.402C90.0071 57.5365 90.0071 57.5365 88.9286 57.5557C89.2785 58.1849 92.9359 60.3992 93.8994 60.2311C93.8994 60.1014 93.8994 60.1014 93.7364 59.9333C93.2576 59.1842 92.8347 58.4008 92.471 57.5894C93.3924 57.9313 94.1882 58.5461 94.7526 59.3521C94.8629 59.5058 94.954 59.6163 95.0307 59.6259C95.51 59.6259 96.833 58.2378 96.6077 57.7431C96.1284 56.6816 94.6568 56.3021 94.6568 54.8612C94.6807 53.7373 96.6173 53.7949 96.6269 53.7949Z" fill="white"/>
<path id="Vector_28" d="M81.5227 39.7258C81.7457 39.7632 81.9746 39.7452 82.189 39.6733C82.2531 39.6632 82.3158 39.6456 82.3759 39.6209V39.6209C82.0885 39.6253 81.8025 39.6605 81.5227 39.7258V39.7258Z" fill="white"/>
<path id="Vector_29" d="M109.986 54.7555L110.873 54.8804C111.011 54.8729 111.142 54.8167 111.242 54.7219C111.261 54.6856 111.271 54.6452 111.271 54.6042C111.271 54.5632 111.261 54.5229 111.242 54.4865C111.242 54.3328 111.079 54.2416 111.026 54.1023C111.003 54.0388 111.003 53.9688 111.026 53.9054M111.026 53.8717C110.922 53.7712 110.787 53.7086 110.643 53.694C110.24 53.6364 108.951 53.8862 109.411 54.4481C109.556 54.6216 109.762 54.7319 109.986 54.7555L111.026 53.8717Z" fill="white"/>
<path id="Vector_30" d="M95.3135 44.8035C94.7656 44.2515 94.0695 43.8711 93.3098 43.7084C92.5141 43.5643 92.5716 44.155 92.6962 44.376C93.142 45.034 95.2847 44.8035 95.3135 44.8035Z" fill="white"/>
<path id="Vector_31" d="M90.8268 38.8236C90.5492 38.8269 90.2721 38.8494 89.9975 38.8908H90.1174C90.3822 38.9032 90.6431 38.96 90.8891 39.0589C90.8076 39.1838 90.6255 39.1118 90.5488 39.2415C90.5488 39.3183 91.2966 39.2847 91.3493 39.2799C91.8007 39.1755 92.2294 38.9899 92.6148 38.7323C92.5285 38.6651 92.423 38.7323 92.3272 38.6843C92.471 38.5498 92.6675 38.6363 92.8065 38.5354H92.7394C92.1127 38.5306 91.4865 38.5691 90.8651 38.6507C90.9898 38.7467 91.1671 38.6843 91.2966 38.7467C91.3157 38.7996 91.2199 38.8188 90.8268 38.8236Z" fill="white"/>
<path id="Vector_32" d="M86.4408 41.1867C86.2394 41.2396 86.1723 41.2588 86.3689 41.4989C86.5674 41.6232 86.7953 41.6927 87.0293 41.7003C87.2634 41.7079 87.4952 41.6533 87.7014 41.5422C88.037 41.4125 88.756 41.0618 88.5259 40.9466C88.4898 40.937 88.4518 40.937 88.4157 40.9466C87.7518 40.9715 87.0913 41.0518 86.4408 41.1867V41.1867Z" fill="white"/>
<path id="Vector_33" d="M94.9779 39.7938H93.746C93.3721 39.7938 92.888 39.7122 92.4566 39.7026C92.2688 39.6786 92.0787 39.6786 91.8909 39.7026C92.5345 39.8618 93.1903 39.9663 93.8515 40.0148C94.192 40.0434 94.5348 40.0009 94.8581 39.8899L94.9779 39.7938Z" fill="white"/>
<path id="Vector_34" d="M91.9628 39.3856C92.0971 39.3856 93.4249 39.3279 93.8131 39.2895C93.9857 39.2895 94.024 39.2559 94.0528 39.1982C94.0816 39.1406 93.9521 39.1166 93.9761 39.0493C94.0001 38.9821 94.0192 38.9869 94.0097 38.9485C94.0043 38.9371 93.9963 38.9272 93.9863 38.9197C93.9762 38.9121 93.9645 38.9072 93.9521 38.9052C93.9063 38.8723 93.8501 38.8569 93.7939 38.862C93.721 38.8678 93.6487 38.8807 93.5782 38.9004C93.2571 38.9869 92.9886 39.2222 92.6435 39.227C92.2984 39.2318 92.1019 39.2415 91.9628 39.3856Z" fill="white"/>
<path id="Vector_35" d="M95.2751 38.5977C95.6105 38.5866 95.9435 38.5366 96.2674 38.4489H94.9731C94.6903 38.4489 94.7143 38.617 94.7143 38.617C94.9015 38.6245 95.0889 38.6181 95.2751 38.5977Z" fill="white"/>
<path id="Vector_36" d="M97.1781 38.838C97.5712 38.838 97.691 38.838 97.7917 38.9533V38.9917C97.5689 39.0205 97.3434 39.0205 97.1206 38.9917C96.6531 38.9581 96.1837 38.9581 95.7161 38.9917C95.4525 39.0541 95.347 39.2991 95.4189 39.3711C95.4908 39.4432 95.4189 39.3711 96.09 39.4336C96.3489 39.4336 96.5694 39.5921 96.8618 39.5921C97.5281 39.5921 98.156 39.3807 98.8127 39.3279C99.2202 39.2943 99.6276 39.3855 100.035 39.3279H100.121L99.8721 39.1502V39.1214H100.088C100.649 39.0637 100.663 39.0445 100.687 38.9965C100.711 38.9485 100.572 38.9629 100.538 38.9052C100.653 38.8332 100.85 38.8668 100.874 38.6699C101.023 38.5834 101.2 38.5978 101.353 38.5018L101.243 38.4634C100.124 38.4154 99.0041 38.433 97.8876 38.5162C97.9975 38.5597 98.1145 38.5825 98.2327 38.5834C97.9395 38.6362 97.6392 38.6362 97.3459 38.5834C96.9507 38.5321 96.5491 38.592 96.1859 38.7563C96.5126 38.8204 96.8454 38.8477 97.1781 38.838V38.838Z" fill="white"/>
<path id="Vector_37" d="M88.4828 41.9504C88.5355 41.9504 94.7143 43.449 96.8234 42.4307C97.3938 42.157 96.3441 41.7295 96.3441 41.7247C94.9638 41.5391 93.5701 41.4732 92.1785 41.5277C91.6129 41.5277 91.3828 40.961 91.5123 40.8601C91.6287 40.8312 91.7505 40.8312 91.867 40.8601C92.9263 40.9274 92.5333 40.4518 92.4518 40.4134C92.2026 40.3607 91.949 40.3317 91.6944 40.327C91.3972 40.2645 91.1671 40.0628 90.8699 39.9907C90.6805 39.9463 90.4883 39.9142 90.2947 39.8947C89.9799 39.9714 89.6897 40.1267 89.4511 40.3462C89.5792 40.3886 89.7144 40.4049 89.8489 40.3942C90.1413 40.3942 90.5583 40.3942 90.6159 40.4711C90.6734 40.5479 90.0454 41.0618 90.0119 41.0811C89.6045 41.1689 89.2027 41.2812 88.8087 41.4173C88.1089 41.8544 88.315 41.8928 88.4828 41.9504Z" fill="white"/>
<path id="Vector_38" d="M78.5459 40.2309C78.3254 40.2645 76.4943 40.6103 76.3792 40.6824C76.4655 40.7112 76.547 40.74 78.5459 40.2309Z" fill="white"/>
<path id="Vector_39" d="M67.7366 43.6123V43.6603C67.7744 43.6699 67.8139 43.6699 67.8517 43.6603C68.4556 43.5018 69.0165 43.2281 69.6205 43.0599C70.7086 42.7573 71.8302 42.5796 72.9088 42.2578C73.1628 42.1762 73.1628 42.1762 73.5751 41.7775V41.7199C73.2504 41.7188 72.9274 41.7658 72.6164 41.8592C72.904 41.7439 72.904 41.7439 72.9951 41.6046H72.8752C71.6433 41.6766 71.6433 41.6766 65.5316 43.9197C64.9413 44.1003 64.4078 44.4313 63.9833 44.8803L64.0265 44.9139C65.3638 44.717 66.5095 44.0206 67.7366 43.6123Z" fill="white"/>
<path id="Vector_40" d="M75.967 41.4461C76.3058 41.4657 76.6455 41.4317 76.9736 41.3452C78.7328 41.0378 79.5909 40.9802 79.6005 40.9802C80.1325 40.9802 80.6742 40.9802 81.2063 40.9322C81.6329 40.8697 83.325 40.399 83.3394 40.399C83.6653 40.303 83.6893 40.2741 83.7372 40.2357C83.5934 40.1895 83.4406 40.1779 83.2914 40.2021C82.8121 40.2885 82.3327 40.4903 81.8198 40.5863C82.4909 40.2549 83.2579 40.0532 83.9386 39.7074H83.8858C83.8858 39.7074 81.887 39.9908 81.7288 40.1877C81.5706 40.3846 81.2494 40.7016 79.8497 40.5479V40.5047L79.9887 40.4326H80.0367C80.2763 40.3078 80.9187 40.4326 80.7701 40.0388C80.7317 40.0388 76.6716 40.5191 76.4559 40.961C77.1291 40.89 77.798 40.7826 78.4596 40.6392C78.1777 40.7934 77.8711 40.8974 77.5536 40.9466C77.592 40.9466 77.6064 40.9466 78.0857 40.8889C78.3663 40.8443 78.6501 40.8234 78.9342 40.8265C78.0292 41.0175 77.1136 41.1539 76.1923 41.2348C75.8951 41.2396 75.8424 41.3885 75.967 41.4461Z" fill="white"/>
<path id="Vector_41" d="M63.2739 46.6623C63.5088 46.8112 63.7772 46.6623 64.0169 46.7583V46.8112C63.8012 47.0705 63.456 47.1474 63.2164 47.3683C64.8025 47.3835 66.3808 47.1418 67.89 46.6527C68.2196 46.5037 68.5707 46.4081 68.9302 46.3693L68.9685 46.4221C68.7816 46.5902 68.7816 46.5902 68.7576 46.6286C69.0316 46.8864 69.3339 47.112 69.6588 47.3011C70.5839 47.3011 70.5839 47.3011 71.7152 46.6863H71.7679C71.6864 46.6383 71.6864 46.6383 70.7709 46.7872C71.0191 46.6001 71.3059 46.4711 71.6103 46.4096C71.9147 46.3481 72.229 46.3556 72.5301 46.4317C72.7218 46.5086 72.7698 46.5182 72.8608 46.4846C72.9519 46.4509 73.4217 46.2492 73.4744 45.8746C73.1245 45.4759 73.1149 44.9139 73.4409 44.7266C73.7668 44.5393 76.3169 42.9639 76.3169 42.7717C76.2452 42.7069 76.17 42.6459 76.0917 42.5892C76.0869 42.559 76.0869 42.5282 76.0917 42.498V42.498C75.0131 42.9062 74.088 43.6891 72.9327 43.9005C72.9807 43.473 73.4409 43.4874 73.6614 43.2328L73.599 43.1608C73.1728 43.2335 72.7419 43.2753 72.3096 43.2857C72.4918 43.1464 72.7266 43.108 72.8944 42.9399C72.8895 42.9226 72.8895 42.9043 72.8944 42.887C72.2904 42.887 71.7392 43.1416 71.1496 43.1512C71.6631 42.9124 72.1915 42.707 72.7314 42.5364C72.3911 42.4547 67.1566 43.7228 67.0847 44.2703L67.2189 44.4192C67.0847 44.5249 67.0799 44.5297 66.4616 44.6594C65.4357 44.8803 65.3638 44.9668 65.3303 45.0868C65.3688 45.1264 65.4194 45.1518 65.4741 45.1589C65.9774 45.2309 66.4759 45.0532 66.984 45.1109C67.3436 45.1589 67.6503 45.4183 67.9859 45.4663C67.3338 45.6444 66.6564 45.711 65.9822 45.6632C63.4896 45.5143 62.9288 46.4317 63.2739 46.6623Z" fill="white"/>
<path id="Vector_42" d="M80.7221 58.9054C80.8611 58.7373 80.6646 58.6845 80.5064 58.6509C80.1975 58.594 79.8797 58.6071 79.5765 58.6893C79.4506 58.7636 79.3504 58.8748 79.2896 59.0079C79.2287 59.1411 79.2101 59.2897 79.2362 59.4338C79.4039 59.7219 80.5304 59.1312 80.7221 58.9054Z" fill="white"/>
<path id="Vector_43" d="M80.842 55.6345C80.9115 55.6293 80.978 55.6043 81.0337 55.5624C81.0845 55.4888 81.1156 55.4033 81.124 55.3141C81.1323 55.225 81.1178 55.1352 81.0817 55.0533C80.9858 54.866 80.8276 54.7267 80.7413 54.5394C80.6463 54.1929 80.5294 53.8528 80.3914 53.5211C80.3914 53.4731 80.3195 53.4203 80.2859 53.3722C80.0702 53.1129 79.7299 53.0264 79.5238 52.767C79.3177 52.5077 79.4663 52.3636 79.332 52.1955C79.3057 52.1859 79.2769 52.1859 79.2505 52.1955C78.6941 52.4591 78.167 52.7811 77.6783 53.1561C77.5153 53.2666 77.3092 53.4299 77.1558 53.5499L75.7178 54.6739C76.2355 54.9044 76.2355 54.9044 76.1971 55.1926C76.1588 55.4808 76.13 55.5624 76.1971 55.5673C76.4286 55.5391 76.6538 55.4726 76.8634 55.3703C77.5927 55.0286 78.405 54.9052 79.2026 55.0149C79.7539 55.135 80.2044 55.6345 80.842 55.6345Z" fill="white"/>
<path id="Vector_44" d="M78.335 57.4405C77.7409 57.3492 77.1363 57.3492 76.5422 57.4405C76.245 57.5413 76.0341 58.0361 76.1348 58.1753C76.3217 58.4443 78.1385 58.0841 78.5315 57.7623C78.6849 57.6374 78.7568 57.5125 78.335 57.4405Z" fill="white"/>
<path id="Vector_45" d="M46.8658 124.016C46.3481 124.016 46.3529 124.852 46.6022 125.049C46.8514 125.246 47.8677 125.822 48.0402 125.323C48.1073 125.02 47.5081 124.132 46.8658 124.016Z" fill="white"/>
<path id="Vector_46" d="M145.674 71.187C145.698 71.1577 145.714 71.1231 145.722 71.0861C145.655 70.7469 145.488 70.4356 145.242 70.1927L145.075 70.0679C144.619 69.7509 144.039 69.6836 143.637 69.309C143.339 69.0496 143.205 68.6077 142.778 68.4828C142.251 68.43 141.729 68.4828 141.206 68.4156C140.712 68.2993 140.211 68.2127 139.706 68.1562C139.38 68.1562 139.457 68.5885 139.183 68.6365C138.91 68.6846 138.704 68.3291 138.426 68.3916L138.277 68.4252C138.038 68.8046 138.239 69.4146 137.664 69.6212C137.272 69.0892 136.959 68.5037 136.734 67.8824C136.6 66.9939 135.095 65.9372 134.491 66.1485C134.491 66.5712 134.97 66.6528 135.095 67.0035C134.764 67.5078 134.136 67.1908 133.757 67.4838C133.872 67.6471 134.423 67.7576 134.74 67.8008C135.291 67.8968 136.743 69.04 135.555 69.4771C135.775 70.0967 136.442 69.8709 136.839 70.1447C137.237 70.4185 137.204 70.625 137.06 71.0189C137.137 71.1486 137.213 71.2206 138.172 71.4464C138.52 71.5182 138.863 71.6145 139.198 71.7345C139.624 71.9171 139.965 72.2581 140.401 72.407C140.458 72.4359 140.517 72.46 140.578 72.479C141.134 72.6211 141.702 72.7064 142.275 72.7336C143.478 72.8537 145.631 72.2197 145.631 71.8354C145.631 71.5808 145.52 71.3551 145.535 71.1053C145.584 71.1269 145.631 71.1543 145.674 71.187V71.187Z" fill="white"/>
<path id="Vector_47" d="M49.0564 122.566C49.3153 123.368 52.2633 124.655 52.4406 124.324C52.5365 124.137 50.2261 118.306 50.1925 118.258C49.7747 117.678 49.2356 117.197 48.613 116.848C47.9904 116.498 47.2993 116.289 46.5878 116.235C45.6989 116.225 44.8184 116.41 44.0089 116.778C44.1192 116.985 45.1162 117.182 46.0605 117.009C47.3931 116.759 48.0306 117.388 48.0642 117.609C47.9635 117.7 47.7478 117.801 47.4602 117.475H47.4171C47.2685 118.032 48.0834 118.57 48.6298 118.916C49.6317 119.583 49.6173 119.838 49.5885 120.606C49.5563 120.944 49.5971 121.285 49.7084 121.605C49.796 121.781 49.8373 121.976 49.8282 122.172C49.7131 122.6 49.2961 122.431 49.0564 122.566Z" fill="white"/>
<path id="Vector_48" d="M52.5701 127.984C52.8241 128.267 52.3687 128.762 52.8001 128.944C53.5431 129.29 53.8212 128.214 54.5114 128.382C54.6375 128.422 54.7582 128.477 54.8709 128.546C55.8864 129.08 56.9315 129.557 58.0011 129.972C58.1017 129.972 58.1736 129.972 58.2168 129.905C58.3558 129.564 58.1688 129.175 58.3893 128.853C59.0556 127.845 53.5959 125.371 53.2172 125.304C53.1629 125.285 53.1037 125.285 53.0494 125.304C53.0159 125.39 53.0159 125.39 53.0494 125.496C53.2237 125.783 53.3089 126.116 53.2944 126.452C53.2799 126.788 53.1663 127.112 52.9679 127.383C52.8289 127.436 52.4071 127.211 51.8175 126.903C50.7437 126.312 50.6239 126.312 50.552 126.308C50.4801 126.303 50.552 126.365 50.552 126.389C51.1608 127.047 52.0092 127.335 52.5701 127.984Z" fill="white"/>
<path id="Vector_49" d="M87.0975 79.2082C86.5462 79.2082 87.4618 80.1688 87.6487 80.3321C88.8663 81.5281 89.6524 80.9661 89.6524 80.9613C89.9592 80.6539 87.6583 79.3139 87.0975 79.2082Z" fill="white"/>
<path id="Vector_50" d="M37.5137 60.3406L37.5608 60.2983L37.5137 60.3406Z" fill="white"/>
<path id="Vector_51" d="M26.1244 72.8585C18.9342 81.629 14.0161 94.266 14.0161 94.266V96.7059C14.2175 96.8212 14.2175 96.8212 15.2385 105.534L14.3804 105.26C14.4907 106.331 16.2403 111.605 16.2547 111.644C16.6957 111.322 17.1511 110.976 16.4177 108.378C16.0821 107.186 15.7034 105.851 16.2499 100.212C17.4387 101.946 17.338 102.772 17.2086 103.819C17.0785 104.541 17.0607 105.278 17.1559 106.005C17.4435 107.282 17.9132 108.502 18.2584 109.766C18.6898 111.403 19.9744 112.681 20.2189 114.396C20.4202 115.779 19.5526 117.234 20.5257 118.56C20.6841 118.752 20.8643 118.924 21.0625 119.074C21.3749 119.388 21.7046 119.685 22.05 119.963C23.2244 120.755 24.4803 121.404 25.6595 122.191C26.8387 122.979 28.5595 122.72 29.5997 123.916C31.9965 126.668 31.9965 126.668 32.9887 127.148L33.4681 127.398C37.9212 129.703 37.8205 136.192 43.0119 137.811C46.6309 134.799 46.4296 139.872 46.1851 142.191C46.1037 142.922 46.1037 142.922 43.8268 145.294C43.8268 145.337 40.7781 149.977 40.9507 151.12C40.9842 151.308 41.0226 151.558 41.0705 151.74C41.871 154.833 46.3769 164.098 46.4104 164.175C47.5848 166.226 49.7659 167.355 51.0841 169.262C52.0955 170.703 52.4215 172.984 52.0428 175.66C52.0428 175.78 50.5041 188.604 52.8289 196.721C55.7865 207.01 61.7544 208.095 61.8167 208.095C57.3539 203.378 57.3539 203.378 58.6769 201.246C58.1976 200.175 58.1976 200.175 58.1545 195.732C58.4037 195.732 58.4037 195.732 59.4199 196.135C59.4199 196.02 59.4199 196.02 58.8112 193.868C60.0671 193.349 60.0671 193.349 60.2492 192.648L60.5081 192.557C62.0276 193.714 63.1061 192.494 62.9048 191.697L62.6507 190.823C66.5287 192.072 71.4324 183.34 71.4755 183.244C72.4342 182.254 74.1455 182.062 74.831 182.019C76.3936 181.932 76.9736 180.333 78.2487 179.8C78.4487 179.703 78.669 179.656 78.8909 179.663C79.1129 179.669 79.33 179.73 79.5238 179.838C80.0558 180.112 80.0942 180.131 80.3578 179.627C80.9235 178.513 81.2302 177.297 81.6904 176.154C81.9541 175.487 81.8007 174.713 82.4574 174.233C83.2195 173.671 83.5024 173.465 83.3202 172.85C83.2828 172.724 83.2666 172.592 83.2723 172.461C86.9009 172.422 89.2833 169.329 89.2833 169.305C89.3025 169.262 89.3155 169.217 89.3216 169.171C89.3887 168.762 89.173 168.368 89.2354 167.951C89.3312 167.336 90.3858 166.812 89.7818 166.188C89.3552 165.736 88.7081 165.943 88.2287 165.65C86.6804 164.689 86.0908 162.85 84.6624 161.807C82.5245 160.222 80.2092 158.926 77.9851 157.485C76.7579 156.466 77.2037 154.809 76.6525 153.551C75.5116 152.067 74.9556 150.107 73.7189 148.68C72.0987 146.817 69.4766 146.327 67.8948 144.406C66.6533 142.883 66.1596 140.875 64.7407 139.458C64.5135 139.229 64.2534 139.035 63.9689 138.882C56.1795 134.742 50.0199 131.476 47 137.753C45.1689 135.155 37.9308 135.698 39.9345 131.841C40.6795 130.446 40.9632 128.85 40.7446 127.283C39.1771 125.645 36.9098 125.947 34.9924 125.164C36.3298 123.277 36.3298 123.277 36.2483 122.138C37.2521 121.171 38.0766 120.033 38.6834 118.776C38.4389 118.33 36.1428 114.607 32.9312 121.62C31.8479 121.139 30.6016 122.46 29.5758 121.293C27.2126 118.551 26.9585 116.034 27.016 114.775C27.0927 113.219 28.6602 112.537 29.0916 111.197C29.3744 110.342 28.3774 109.525 29.0149 108.661C29.8394 107.537 33.0175 105.986 33.6886 105.779C34.9157 105.371 38.3574 107.547 38.4005 107.566L38.832 107.407C38.6594 106.989 38.2711 106.735 38.041 106.355L38.2711 105.976C39.1723 105.808 45.3271 107.383 45.3559 107.417C47.4315 109.684 44.6081 112.734 46.5638 115.03C50.5712 112.984 46.8371 108.627 48.4333 105.717C50.0295 102.806 53.5288 103.094 56.0214 101.706H55.9782C55.9303 101.591 55.868 101.427 55.8152 101.317C55.8776 101.211 55.9495 101.062 56.0022 100.947H56.4096L56.6157 100.505L56.2994 100.241L58.9598 94.5782C58.7057 95.4619 57.7758 98.0988 57.7758 98.0988C58.1113 98.0172 58.1113 98.0172 59.6932 94.2564C59.8464 94.722 59.9319 95.2073 59.9472 95.6973C60.7861 94.9816 61.0257 93.7376 62.1139 93.2285C63.5615 92.9691 65.0171 92.7818 66.4807 92.6665C67.8612 89.7558 67.8612 89.7558 70.1046 88.7664C70.3874 88.8817 70.3874 88.8817 76.293 87.7625L76.0054 88.0507C76.2503 88.2575 76.5293 88.4201 76.8298 88.531L76.6764 88.9537C73.1293 89.9768 73.1293 89.9768 72.8848 90.5532C74.8022 91.2688 81.9301 89.8807 81.8007 86.8596C80.7988 87.1141 80.4106 88.1084 79.6676 88.6703C79.0971 88.2765 78.6322 87.9499 78.2295 87.6665C78.572 87.6783 78.9088 87.5771 79.1882 87.3783V87.3783C79.136 87.3521 79.0788 87.3374 79.0205 87.3351C78.5242 87.2774 78.0583 87.0658 77.6879 86.7299C77.5602 86.6291 77.474 86.4848 77.4457 86.3245C77.4174 86.1642 77.449 85.999 77.5345 85.8605C77.5872 85.7404 77.5345 85.7212 77.5345 85.7068C77.391 85.8495 77.2772 86.0194 77.1998 86.2066C77.1225 86.3938 77.0831 86.5945 77.0839 86.7971C76.4703 86.1919 76.4703 85.7692 76.4991 84.7894C75.8951 84.3091 75.8711 84.2178 75.7034 83.7471C76.8394 83.8336 77.6591 83.896 78.2487 82.9258C77.8988 82.2149 77.8988 82.2149 68.9014 84.2611C75.8568 80.7452 75.8568 80.7452 81.6473 80.9998C82.5485 82.2294 88.8375 81.4801 90.1701 80.2553C90.1317 79.5204 90.1317 79.5204 90.8364 78.7039L90.7693 78.2716L89.5421 77.5223L89.1634 77.3878C88.2311 77.1956 87.2651 77.2486 86.3593 77.5415V77.1332C87.0256 76.6529 87.2269 76.6529 89.0292 76.6097C89.1384 76.6055 89.245 76.5759 89.3408 76.5233C89.475 76.3648 88.6122 74.8662 86.9201 74.7269C86.5366 74.6933 86.5366 74.6933 86.3736 74.5636C86.3736 74.2226 86.7332 73.9824 86.6181 73.603C86.4599 73.1226 85.8464 73.0026 85.6882 72.5078C85.6307 72.2917 85.7649 72.1812 86.11 71.9411C86.6181 71.576 86.6181 71.576 86.3401 69.9814C85.6354 65.966 85.6355 65.966 84.0967 67.3829C83.8523 67.6039 84.0967 68.0506 83.79 68.2043C83.4832 68.358 83.0182 67.9641 82.6395 68.2043C81.7671 68.7998 81.7671 68.7998 81.585 68.795C80.4489 68.747 80.0271 67.6663 79.1882 67.1476C79.1307 66.8162 80.123 65.111 80.818 64.8613C80.3387 64.501 79.7155 64.5683 79.2649 64.1936C79.1547 64.1072 79.1163 63.9967 79.0492 63.6653C79.0492 63.55 78.9773 63.2811 77.8317 62.4069C77.6782 62.2678 77.4889 62.1746 77.2852 62.1379C75.9958 62.0371 74.831 61.3358 73.5128 61.4078C73.3354 62.575 71.6433 63.0889 72.1802 64.5539C71.8207 65.0342 71.0585 64.9621 70.8044 65.5769C70.5504 66.1917 71.092 66.9747 70.8715 67.6855C70.8715 67.7191 69.9129 70.5674 68.168 70.3609C67.7893 70.3224 66.8834 70.2936 66.8306 70.9468C66.6484 71.0538 66.4513 71.1331 66.2458 71.1822C65.244 72.6663 65.5795 75.0919 63.2883 75.7259C63.015 74.626 62.0707 74.0064 61.4667 73.1419C61.771 72.839 62.0039 72.4717 62.1482 72.067C62.2925 71.6622 62.3447 71.2303 62.3008 70.8027L62.8856 70.5866C62.8856 70.5146 62.9623 70.3801 62.9671 70.2984C62.8118 70.2238 62.6516 70.1596 62.4878 70.1063C61.9796 69.0976 60.8196 69.4387 60.091 68.9295C59.3624 68.4204 59.2042 67.4021 58.4948 66.8354C58.3594 66.7295 58.2169 66.6332 58.0682 66.5472C57.4019 66.1677 56.6685 66.5472 55.9638 66.4895C55.8057 66.2254 55.8057 66.2254 56.122 64.4482C56.2179 63.8238 56.2179 63.8238 54.8853 63.2378C55.1969 61.3166 60.6806 59.6355 63.0342 58.915C63.0342 58.2426 62.3152 58.305 62.0755 57.8968C65.9103 58.526 65.9103 58.526 68.748 57.0514C67.2669 56.8065 66.9601 56.7536 66.0781 55.7162C67.588 55.7162 69.0309 57.1571 70.5983 55.9419C70.5048 55.8251 70.387 55.73 70.2532 55.6633C70.2532 55.6633 71.2119 55.0869 71.7631 55.7738C74.3995 55.7738 74.3995 55.7738 75.2048 55.428C75.3979 55.3504 75.5788 55.2453 75.7417 55.1158C76.1396 54.7795 75.8855 54.1551 76.269 53.8285C76.6525 53.5019 77.0935 53.7229 77.4674 53.5307C77.6879 53.3866 77.8029 53.1465 77.9899 52.9688C77.9899 52.9688 76.71 50.231 75.0467 52.8535C73.6086 53.1273 71.6912 55.6681 70.699 53.8141C71.14 52.988 73.0957 53.0456 72.5828 51.8929C71.5187 51.8929 70.814 52.7286 69.9129 53.1033C69.9129 52.5653 71.3078 51.6623 71.3509 51.6623C71.0692 51.5198 70.7776 51.3978 70.4785 51.2973C72.7554 49.4625 72.7554 49.4625 72.8513 49.1743L72.6931 48.939C73.9729 47.9447 73.9729 47.9447 78.6561 47.0177C78.4324 46.8985 78.1854 46.8296 77.9323 46.816C74.5769 46.4557 68.3454 50.8266 68.2783 50.8266C68.2112 50.8266 68.2783 51.0043 68.3118 51.0811C68.6426 51.1964 68.9829 51.2348 69.328 51.3357V51.5567C68.8675 51.5746 68.4149 51.6823 67.9955 51.8737L67.9331 52.0322L68.1201 52.1474C67.0607 53.0552 65.4501 52.9351 64.4962 54.0014C64.1751 53.2954 64.1751 53.2954 65.4549 52.6133C64.9756 52.2819 64.9756 52.2819 62.7083 53.0552C62.5884 53.0985 61.8646 53.2618 59.7171 52.3876C59.65 52.133 59.7699 51.8641 59.7171 51.6095C57.7997 51.4462 56.9129 52.2819 55.1442 53.9678C55.1442 53.377 55.7385 53.1081 55.8488 52.5941C54.8422 52.4068 53.7924 52.9159 52.8049 52.3924C53.3802 52.1282 54.1423 52.2051 54.5354 51.5999L54.4108 51.403C54.1375 51.451 54.0896 51.4558 53.4521 51.1436C53.4054 50.9924 53.3444 50.846 53.2699 50.7065C52.757 50.6393 52.3112 50.9563 51.8702 51.0811C51.9997 50.9634 52.1392 50.8574 52.2872 50.7641C51.978 50.8475 51.6789 50.9651 51.3957 51.1148C51.7852 50.7246 52.2352 50.4002 52.7282 50.1541L51.1752 50.7449C51.1752 50.7449 42.8153 56.0284 39.4503 59.0255C34.6002 63.2295 30.1341 67.8589 26.1053 72.8585H26.1244Z" fill="white"/>
<path id="Vector_52" d="M59.8705 131.034C59.3097 131.183 59.6932 131.994 60.2109 132.259C60.7747 132.509 61.3869 132.632 62.0036 132.619C62.0564 132.566 62.0036 132.379 61.1791 131.759C60.3547 131.139 60.1006 131.053 59.8705 131.034Z" fill="white"/>
<path id="Vector_53" d="M154.403 94.9288C154.679 94.8429 154.961 94.7755 155.246 94.7271C155.587 94.679 155.917 94.9192 156.267 94.6838C156.454 94.5542 156.55 94.1219 156.545 93.4158C156.541 93.122 156.492 92.8306 156.402 92.5513C156.329 92.4015 156.31 92.2312 156.349 92.0692C156.387 91.9072 156.48 91.7635 156.612 91.6627C156.81 91.4731 156.934 91.2195 156.962 90.947C156.971 90.6316 156.868 90.3233 156.67 90.0776C156.585 89.9665 156.494 89.8606 156.397 89.7606C156.147 89.5205 155.855 89.3332 155.611 89.093C155.505 89.0034 155.42 88.892 155.361 88.7664C155.36 88.754 155.355 88.7424 155.346 88.7336C155.337 88.7249 155.326 88.7194 155.313 88.7184C155.27 88.7184 153.152 88.5118 154.12 89.6021C154.186 89.6886 154.276 89.7537 154.379 89.7895C154.311 89.8142 154.24 89.8272 154.168 89.8279C153.668 89.8482 153.179 89.9725 152.73 90.1929C152.603 90.2481 152.492 90.3349 152.408 90.445C152.324 90.5551 152.27 90.685 152.25 90.8221C152.251 90.935 152.274 91.0467 152.319 91.15C152.365 91.2534 152.431 91.3461 152.514 91.4225C152.739 91.5798 152.978 91.7164 153.228 91.8308L153.176 91.8884C152.719 92.3874 152.319 92.9351 151.982 93.5215C151.733 93.9682 151.69 94.1891 151.776 94.4581C151.953 94.8856 153.271 95.193 154.403 94.9288Z" fill="white"/>
<path id="Vector_54" d="M164.944 123.555C164.982 123.565 165.021 123.566 165.06 123.56C165.099 123.553 165.136 123.538 165.169 123.517C165.169 123.517 165.648 123.243 165.682 123.224C165.763 123.089 165.557 122.883 165.13 122.672C164.704 122.46 163.875 122.292 164.047 122.748C164.259 123.101 164.571 123.382 164.944 123.555Z" fill="white"/>
<path id="Vector_55" d="M158.865 93.4494C158.779 93.4494 158.774 93.4831 158.765 93.5743L159.326 93.8241C159.197 93.6712 159.041 93.544 158.865 93.4494V93.4494Z" fill="white"/>
<path id="Vector_56" d="M180.297 106.74C181.289 108.003 182.516 111.572 182.919 112.984C182.44 110.765 181.342 105.51 180.776 103.305C178.106 94.5349 178.073 94.362 176.103 89.8567L173.926 85.2409C173.84 85.0824 173.759 84.9239 173.668 84.7606C173.95 85.5476 174.281 86.316 174.66 87.0613C174.463 86.8211 174.315 86.5473 174.133 86.2976C174.281 87.1573 174.847 87.8106 175.206 88.5695L175.048 88.6127C173.366 85.8509 172.172 82.8489 170.456 80.0968C171.381 81.2543 171.937 82.6856 173.025 83.7375C172.91 83.0699 170.394 78.6654 168.519 76.3792C167.915 75.734 167.381 75.0273 166.923 74.2706C167.019 74.3471 167.11 74.4289 167.196 74.5155C167.028 74.2311 166.832 73.964 166.612 73.7182L166.449 73.7711C165.977 73.3195 165.559 72.8151 165.202 72.2677C165.289 72.3445 165.408 72.4406 165.495 72.5078C165.461 71.9795 163.712 70.284 163.577 70.1879C163.588 70.4688 163.664 70.7433 163.798 70.9901C163.132 70.4809 163.055 69.5827 162.432 69.0688C162.432 69.4483 162.758 69.7364 162.777 70.1063C162.298 70.5866 162.298 70.5866 162.235 70.9564C162.115 71.504 162.758 75.0631 162.762 75.0967C163.342 77.4695 163.055 78.1275 163.021 78.1947C162.149 79.9046 162.149 79.9046 160.912 80.2601C160.466 80.3946 160.433 80.529 160.433 81.0622C160.433 81.1342 160.912 88.238 163.74 87.9643C164.642 87.8778 164.699 86.4465 164.742 85.7596C164.886 85.971 167.719 91.8452 168.098 93.4975C168.256 94.2804 168.404 95.0248 169.056 95.265C169.57 94.4148 169.828 93.4342 169.799 92.4408C169.464 90.2986 169.756 90.1737 170.408 89.8903C170.571 89.4724 170.581 89.2899 169.612 88.0075C168.946 87.1237 168.946 87.1237 168.424 84.7798C168.232 83.8912 169.306 83.238 168.879 82.3062C167.772 79.8422 167.772 79.8422 167.772 79.7317C167.764 79.6454 167.764 79.5587 167.772 79.4724L167.906 79.3619C168.476 79.8134 170.14 82.042 170.14 82.5127L169.957 82.4695C170.322 86.8211 170.322 86.8211 171.396 88.8673C172.33 90.6492 174.506 91.1968 175.456 92.9691C175.246 92.8317 175.053 92.6706 174.88 92.4888L174.713 92.5224C174.745 92.7187 174.79 92.9128 174.847 93.1036C174.162 92.5297 173.432 92.0109 172.666 91.5522C173.145 93.142 174.104 94.5541 174.334 96.2352C173.438 95.8798 173.855 94.5349 172.838 94.266L172.685 94.386C172.685 94.386 173.078 96.7876 173.164 96.9893C173.251 97.191 173.644 98.4303 173.452 98.8481C172.91 98.6032 172.91 98.6032 172.781 98.5936C172.642 98.7425 172.551 98.9154 172.417 99.0739C172.426 99.129 172.444 99.1825 172.469 99.2324C169.972 98.1517 169.972 98.1517 169.866 98.3918L169.43 98.4831C168.943 97.9525 168.375 97.502 167.748 97.1478L168.913 97.8155C168.548 97.2485 167.983 96.8403 167.331 96.6723C166.99 96.5666 166.899 96.5426 166.334 95.1113C165.912 94.0642 165.5 92.5993 165.893 91.6098C166.056 91.2016 166.046 89.2323 165.6 89.021C165.547 89.021 164.22 88.5166 164.22 89.2515C164.503 91.196 164.962 93.1107 165.591 94.972C165.732 95.2454 165.832 95.5384 165.888 95.8414C165.802 95.8894 165.778 95.8942 165.408 95.8414L164.512 95.6877C163.812 94.703 162.839 93.9345 162.302 92.8346C162.104 92.2327 161.837 91.6557 161.507 91.1151C161.017 90.4826 160.373 89.9864 159.637 89.6742V89.6742C160.308 89.3956 161.823 87.3351 160.433 86.7923C160.19 86.7048 159.94 86.6389 159.685 86.5954C158.76 86.3936 158.592 86.36 158.664 86.1151C158.817 85.6348 159.915 85.0536 159.278 84.7798C159.278 84.7798 157.523 84.1938 157.049 84.7222C157.01 84.7873 156.992 84.8626 156.996 84.9383C156.881 85.5147 157.111 86.091 156.996 86.6626C156.881 87.2342 156.416 87.4407 156.435 87.9595C156.555 88.0603 156.857 88.1372 157.638 87.8874C157.916 87.7962 158.166 87.7145 158.305 87.8538C158.813 88.4254 157.825 88.8432 157.883 89.4148C157.88 89.8025 157.986 90.1831 158.187 90.514C158.389 90.8449 158.678 91.113 159.024 91.288C159.954 91.9172 160.073 91.9941 160.212 92.191C160.212 92.3639 160.035 92.4984 160.069 92.6713C160.174 93.2573 160.548 93.7616 160.601 94.3572C160.548 94.9288 160.006 94.3956 159.642 94.0066C159.474 93.8385 159.474 93.8385 158.913 93.5935C158.913 94.3428 159.551 94.9288 159.441 95.7021C159.388 96.1152 158.961 96.1824 158.352 96.2641C158.194 96.2641 157.95 96.3073 157.969 96.4898C157.988 96.6723 158.113 96.9317 159.369 97.3303C159.891 97.4985 160.979 97.8491 160.903 98.2093C160.6 98.1271 160.285 98.0994 159.973 98.1277C159.963 98.172 159.963 98.2178 159.973 98.2621C159.809 98.2318 159.641 98.2572 159.493 98.3342C159.148 98.4831 158.976 98.8529 158.65 99.0066C158.324 99.1603 157.787 99.29 157.379 99.4869V99.5926C157.499 99.6695 157.533 99.6887 158.779 99.9624C158.678 100.155 158.552 100.335 158.405 100.496C157.121 99.9673 156.967 99.7415 156.545 99.1267C156.606 99.451 156.684 99.7717 156.78 100.087L156.497 100.467C156.162 100.491 155.826 100.491 155.491 100.467C155.011 99.8376 155.011 99.8376 153.986 99.4581L153.66 99.7895L154.206 100.865L153.765 100.99C159.292 104.833 156.162 110.678 156.114 110.726C153.334 109.516 150.884 107.686 148.152 106.403C148.208 106.733 148.302 107.055 148.43 107.364C148.401 107.441 146.033 115.164 146.925 115.798C146.561 116.637 146.154 117.456 145.707 118.253C147.745 118.795 148.171 118.925 148.952 119.401C148.874 119.897 148.829 120.397 148.818 120.899L154.005 120.986C155.342 121.279 156.239 119.761 155.922 118.421C157.734 115.621 157.772 115.621 159.93 115.539C160.816 113.08 160.816 113.08 161.085 112.984C162.235 112.556 162.523 113.983 163.333 114.276C164.555 113.2 165.49 112.551 166.31 113.983C167.658 117.316 168.831 120.718 169.823 124.175C169.654 124.488 169.584 124.844 169.622 125.198C169.708 125.414 170.058 125.448 170.015 125.76C169.972 126.072 169.785 126.269 169.761 126.557C169.754 126.629 169.767 126.7 169.799 126.764C169.832 126.828 169.882 126.881 169.943 126.918C169.974 126.936 170.008 126.947 170.044 126.951C169.852 127.816 169.243 127.696 166.952 127.225C167.293 128.318 167.756 129.368 168.333 130.357C168.812 129.689 168.615 128.82 169.004 128.123L169.387 128.32C169.91 127.926 170.264 127.359 170.763 126.985V126.913C170.891 126.869 171.009 126.798 171.108 126.706C171.207 126.613 171.286 126.5 171.338 126.375C171.371 126.286 171.396 126.195 171.41 126.101C171.472 125.794 171.458 125.472 171.52 125.14V125.073C171.592 125.333 171.688 125.64 171.765 125.875C171.841 125.459 171.798 125.029 171.64 124.636C171.688 124.478 171.731 124.324 171.765 124.156C171.865 123.632 171.712 123.488 171.539 123.426C171.428 123.401 171.313 123.388 171.199 123.387L170.6 121.749L170.82 121.399C170.826 121.461 170.839 121.522 170.859 121.581C170.859 121.581 171.257 122.638 171.3 122.676C171.487 122.676 171.779 121.384 171.851 120.702C171.89 120.384 171.911 120.063 171.913 119.742L172.982 122.532V128.551L173.361 133.776C173.505 133.501 173.628 133.215 173.73 132.921C173.996 131.818 174.156 130.693 174.209 129.559C174.689 125.962 174.689 125.962 175.13 125.827C175.681 126.168 176.678 127.364 176.596 128.435C176.838 128.231 177.06 128.006 177.263 127.763L177.718 127.893C179.199 124.972 177.943 121.557 179.401 118.627C179.688 118.643 179.961 118.755 180.177 118.944L179.861 119.261C180.014 119.701 180.252 120.105 180.561 120.453C180.541 120.947 180.374 121.423 180.081 121.821C180.247 122.43 180.38 123.047 180.479 123.671C182.253 123.334 180.585 121.053 181.438 119.963C182.138 120.049 182.181 120.304 182.195 120.88L181.831 121.202C181.932 121.649 181.932 121.649 181.831 123.089L181.467 123.354C181.606 126.36 183.293 129.247 182.099 132.34L181.658 132.412C180.7 131.115 181.745 128.31 179.492 128.133C179.371 128.408 179.171 128.641 178.916 128.8C178.696 128.632 178.404 128.421 178.169 128.277C178.145 128.563 178.198 128.85 178.322 129.108C177.709 129.348 177.153 128.882 176.553 128.954C176.396 129.249 176.266 129.558 176.165 129.876L176.52 130.131C176.17 131.769 175.532 134.814 176.894 137.129L177.292 136.932L177.426 136.505C177.876 137.249 177.766 138.205 178.341 138.906C178.534 138.669 178.695 138.407 178.821 138.128C178.951 138.398 179.132 138.641 179.353 138.844C177.589 144.867 177.349 145.823 176.117 147.201C175.288 146.831 175.206 146.596 175.226 145.659C174.952 145.587 174.662 145.607 174.401 145.717C171.645 144.511 173.346 140.477 170.394 139.386C169.502 140.174 169.536 141.476 168.797 142.35H168.318C167.868 141.682 163.448 133.479 163.251 132.542C163.194 132.249 163.539 131.874 163.774 131.701C164.32 131.26 164.32 131.26 165.284 127.686C164.972 127.257 164.634 126.848 164.272 126.461C163.553 126.697 163.553 126.697 161.368 125.313C161.087 125.46 160.824 125.638 160.581 125.842C157.911 123.546 154.24 126.058 151.546 123.92L151.095 123.728C150.17 123.594 149.854 123.551 149.307 122.086C149.183 121.908 149.173 121.908 149.168 121.908C148.995 121.964 148.827 122.035 148.665 122.119C147.84 122.624 147.927 123.781 147.112 124.295C146.096 124.963 144.782 124.449 143.756 125.184C143.459 125.4 143.373 125.943 143.234 126.284C141.734 129.948 141.733 129.948 140.564 130.083C139.401 130.251 138.27 130.593 137.208 131.096C136.331 131.802 129.716 137.499 129.711 137.508C128.877 139.358 129.568 141.413 128.949 143.272C128.427 144.852 125.929 144.809 126.006 146.87C126.107 149.968 126.672 153.003 127.018 156.068C127.161 157.36 129.788 162.528 130.565 162.758C134.399 163.719 138.488 163.575 142.16 165.328C142.283 165.405 142.383 165.515 142.448 165.645C142.927 166.471 142.079 167.331 142.548 168.157C143.018 168.983 143.962 168.978 144.614 169.492C144.614 171.145 144.614 171.145 143.474 172.374C140.396 175.736 140.396 175.736 140.257 176.99C140.037 178.911 139.735 181.572 135.583 186.154C133.666 188.268 131.006 189.377 128.829 191.14C126.826 192.778 125.766 195.266 123.82 196.971C116.256 203.662 116.079 203.729 115.063 204.238C114.285 204.59 113.599 205.118 113.059 205.78C115.182 207.36 118.653 206.448 119.794 206.131L124.4 204.79L130.383 202.692C131.821 201.961 132.952 200.741 134.447 200.093C136.159 199.353 138.081 199.377 139.787 198.609C143.852 196.764 148.708 191.966 149.254 191.351C151.474 188.892 157.039 185.881 158.664 185.045C161.272 183.604 165.715 179.022 167.086 177.105C166.669 176.774 166.669 176.774 165.754 176.663C165.653 176.332 165.653 176.332 167.249 173.042C167.844 171.827 167.987 170.472 168.409 169.199C169.497 165.904 171.285 162.869 172.143 159.478L174.9 148.82C174.991 149.214 174.991 149.214 174.684 150.784C174.998 150.642 175.263 150.41 175.446 150.117C174.828 158.671 169.833 165.717 167.34 173.618C168.337 173.517 168.337 173.517 168.678 173.738C172.68 169.641 172.68 169.641 172.992 169.055L172.757 169.497C172.896 169.257 173.083 168.935 173.236 168.685L173.375 168.421L174.257 166.702C174.65 165.909 175.139 164.92 176.314 162.177L176.155 162.6C177.114 160.198 178.341 157.249 179.147 154.886C179.813 152.485 180.839 149.262 181.428 146.812C181.567 146.072 181.702 145.371 181.826 144.737C181.917 142.667 181.97 142.336 183.164 135.313C183.159 135.347 183.159 135.381 183.164 135.414C183.619 125.429 183.619 125.429 183.724 124.972V125.025C183.724 121.865 184.084 120.774 183.777 117.499L182.444 110.745C181.983 109.288 181.255 107.93 180.297 106.74V106.74ZM163.52 95.6925C163.558 95.6925 163.573 95.6925 163.908 95.899L163.481 95.7357C163.492 95.7224 163.505 95.711 163.52 95.7021V95.6925ZM171.717 119.598C171.707 119.618 171.696 119.637 171.683 119.655C171.567 119.956 171.477 120.266 171.415 120.582C171.389 120.693 171.336 120.795 171.259 120.88C171.183 120.964 171.086 121.027 170.979 121.063C170.922 121.076 170.871 121.106 170.832 121.149C170.793 121.192 170.767 121.245 170.758 121.303V121.341C169.9 120.534 169.219 119.819 168.452 113.315C168.692 113.143 168.973 113.037 169.267 113.008L171.779 119.554C171.753 119.572 171.732 119.595 171.717 119.622V119.598Z" fill="white"/>
</g>
<path id="Vector_57" d="M167.264 138.426C167.419 136.544 167.14 134.651 166.447 132.895C165.754 131.139 164.667 129.566 163.269 128.3C161.871 127.033 160.2 126.107 158.387 125.592C156.573 125.078 154.666 124.99 152.813 125.334C150.96 125.679 149.211 126.447 147.702 127.579C146.194 128.711 144.966 130.176 144.114 131.861C143.263 133.545 142.81 135.404 142.792 137.292C142.774 139.181 143.191 141.048 144.01 142.749V142.749L144.034 142.806C144.482 143.606 144.973 144.381 145.506 145.126L151.829 155.141C152.142 155.637 152.639 155.988 153.211 156.117C153.783 156.245 154.382 156.141 154.877 155.828C155.056 155.718 155.218 155.582 155.357 155.424L163.084 146.735C163.782 146.037 164.439 145.299 165.054 144.526H165.087C166.352 142.728 167.104 140.619 167.264 138.426V138.426ZM154.614 142.749C153.551 142.66 152.538 142.259 151.703 141.594C150.868 140.929 150.249 140.031 149.923 139.013C149.598 137.996 149.58 136.904 149.874 135.877C150.167 134.85 150.758 133.932 151.571 133.242C152.385 132.551 153.385 132.117 154.444 131.995C155.504 131.873 156.575 132.069 157.524 132.558C158.472 133.046 159.255 133.806 159.773 134.74C160.29 135.674 160.52 136.741 160.433 137.806C160.375 138.514 160.178 139.203 159.854 139.834C159.53 140.465 159.086 141.027 158.545 141.486C158.005 141.945 157.379 142.292 156.705 142.509C156.03 142.726 155.32 142.807 154.614 142.749Z" fill="#5368DF"/>
<path id="Vector_58" d="M74.0113 149.132C74.11 147.928 73.9304 146.717 73.4866 145.594C73.0427 144.471 72.3465 143.465 71.452 142.655C70.5575 141.845 69.4887 141.252 68.3286 140.923C67.1685 140.594 65.9483 140.537 64.7627 140.757C63.5772 140.977 62.4581 141.467 61.4924 142.191C60.5267 142.914 59.7403 143.851 59.1944 144.928C58.6484 146.005 58.3575 147.194 58.3442 148.402C58.331 149.61 58.5957 150.805 59.1179 151.894V151.894V151.927C59.41 152.439 59.7301 152.935 60.0766 153.412L64.1271 159.819C64.3315 160.132 64.6493 160.353 65.0134 160.435C65.3774 160.518 65.7592 160.455 66.0781 160.261C66.1913 160.19 66.2932 160.103 66.3801 160.001L71.3317 154.439C71.7777 153.982 72.1986 153.501 72.5924 152.998V152.998C73.4077 151.863 73.8983 150.526 74.0113 149.132V149.132ZM65.9103 151.899C65.2302 151.842 64.582 151.585 64.0478 151.16C63.5135 150.734 63.1171 150.16 62.9086 149.508C62.7001 148.857 62.689 148.159 62.8766 147.501C63.0642 146.844 63.4421 146.257 63.9626 145.815C64.483 145.372 65.1227 145.095 65.8006 145.016C66.4786 144.938 67.1644 145.063 67.7715 145.376C68.3786 145.688 68.8796 146.174 69.2113 146.771C69.5429 147.369 69.6903 148.052 69.6348 148.733C69.5979 149.186 69.4723 149.628 69.2651 150.032C69.0579 150.436 68.7732 150.796 68.4273 151.089C68.0814 151.383 67.6811 151.606 67.2492 151.745C66.8173 151.884 66.3623 151.936 65.9103 151.899V151.899Z" fill="#5368DF"/>
<path id="Vector_59" d="M56.285 82.9258C56.2878 81.8669 56.0467 80.8216 55.5805 79.8712C55.1143 78.9209 54.4356 78.0912 53.5971 77.4466C52.7586 76.802 51.783 76.36 50.7462 76.1549C49.7094 75.9499 48.6394 75.9873 47.6193 76.2642C46.5993 76.5412 45.6568 77.0503 44.8652 77.7518C44.0736 78.4534 43.4542 79.3285 43.0552 80.3091C42.6563 81.2896 42.4885 82.3492 42.5649 83.4054C42.6414 84.4616 42.96 85.4858 43.496 86.3984V86.3984C43.7549 86.8451 44.0904 87.1621 44.4259 87.628L48.4285 92.9115C48.6214 93.1765 48.9109 93.3544 49.2341 93.4066C49.5573 93.4588 49.888 93.381 50.1541 93.1901C50.2606 93.1122 50.3544 93.0182 50.4322 92.9115L54.3436 87.7337C54.7003 87.3057 55.0332 86.8584 55.3407 86.3936C55.958 85.3425 56.284 84.1454 56.285 82.9258V82.9258ZM49.4159 85.9229C48.8177 85.9229 48.2329 85.7452 47.7355 85.4122C47.2381 85.0791 46.8504 84.6058 46.6215 84.052C46.3926 83.4982 46.3327 82.8888 46.4494 82.3009C46.5661 81.713 46.8542 81.173 47.2772 80.7491C47.7002 80.3252 48.2391 80.0366 48.8259 79.9196C49.4126 79.8027 50.0208 79.8627 50.5734 80.0921C51.1261 80.3215 51.5985 80.71 51.9309 81.2084C52.2632 81.7068 52.4406 82.2927 52.4406 82.8922V82.8922C52.4413 83.2904 52.3635 83.6848 52.2117 84.0527C52.0599 84.4207 51.8371 84.7551 51.5561 85.0367C51.2751 85.3182 50.9414 85.5414 50.5742 85.6935C50.2069 85.8456 49.8133 85.9236 49.4159 85.9229V85.9229Z" fill="#5368DF"/>
<path id="Vector_60" d="M375.43 262.836V311.722C375.43 312.45 375.141 313.147 374.628 313.662C374.115 314.176 373.419 314.465 372.693 314.465H46.9761C46.251 314.464 45.556 314.174 45.0438 313.66C44.5315 313.146 44.2438 312.449 44.2438 311.722V262.836H375.43Z" fill="#9EA0A3"/>
<path id="Vector_61" opacity="0.2" d="M375.43 262.836V278.951C225.586 269.416 81.4891 297.279 44.2438 305.228V262.836H375.43Z" fill="white"/>
<path id="Vector_62" d="M379.327 236.587H40.9555C32.2059 236.587 25.113 243.693 25.113 252.459C25.113 261.225 32.2059 268.331 40.9555 268.331H379.327C388.076 268.331 395.169 261.225 395.169 252.459C395.169 243.693 388.076 236.587 379.327 236.587Z" fill="#E1E1E2"/>
<path id="Vector_63" d="M123.379 137.1C123.379 137.1 124.3 133.296 127.468 133.786C127.468 133.786 128.93 133.906 128.321 138.426C128.263 141.941 128.925 145.432 130.268 148.68C130.268 148.68 137.582 163.21 129.05 166.75L124.664 170.17L119.549 165.16L117.109 147.825L123.379 137.1Z" fill="#F7A48B"/>
<path id="Vector_64" d="M197.103 131.894L194.059 139.948C194.059 139.948 196.858 139.338 198.018 139.401C199.931 137.387 202.208 135.757 204.729 134.598C202.062 134.102 199.488 133.189 197.103 131.894V131.894Z" fill="#2F2E41"/>
<path id="Vector_65" d="M198.019 139.401C198.019 139.401 170.48 139.646 152.811 175.424L145.381 203.628L147.936 237.327H292.699C292.699 237.327 305.249 233.542 297.694 213.883C297.694 213.883 283.563 171.135 269.547 160.285C269.547 160.285 259.313 146.12 234.454 140.261L198.019 139.401Z" fill="#5368DF"/>
<path id="Vector_66" d="M204.6 130.366C204.6 130.366 204.413 150.818 207.888 159.425L225.293 134.516C225.293 134.516 223.098 127.436 223.951 120.587L204.6 130.366Z" fill="#F9B499"/>
<path id="Vector_67" d="M204.6 130.366C204.6 130.366 204.667 135.318 205.079 140.962C205.079 140.962 222.48 136.764 223.846 123.555L204.6 130.366Z" fill="#F7A48B"/>
<path id="Vector_68" d="M204.744 134.579C204.744 134.579 195.698 137.259 195.775 146.192C195.834 149.69 197.267 153.022 199.763 155.467C203.162 158.829 209.71 162.878 220.562 160.525C220.562 160.525 242.003 157.105 234.463 140.256C233.44 138.692 232.09 137.369 230.507 136.378C228.924 135.387 227.145 134.752 225.293 134.516L207.869 159.425C207.869 159.425 204.648 150.265 204.744 134.579Z" fill="#5368DF"/>
<path id="Vector_69" opacity="0.2" d="M204.744 134.579C204.744 134.579 195.698 137.259 195.775 146.192C195.834 149.69 197.267 153.022 199.763 155.467C203.162 158.829 209.71 162.878 220.562 160.525C220.562 160.525 242.003 157.105 234.463 140.256C233.44 138.692 232.09 137.369 230.507 136.378C228.924 135.387 227.145 134.752 225.293 134.516L207.869 159.425C207.869 159.425 204.648 150.265 204.744 134.579Z" fill="black"/>
<path id="Vector_70" d="M270.275 210.338C270.275 210.338 296.716 211.923 295.618 228.148C295.618 228.148 295.983 249.517 266.009 240.478L270.275 210.338Z" fill="#F9B499"/>
<path id="Vector_71" d="M265.827 240.617H156.531C155.083 240.617 153.909 241.792 153.909 243.242C153.909 244.691 155.083 245.867 156.531 245.867H265.827C267.275 245.867 268.449 244.691 268.449 243.242C268.449 241.792 267.275 240.617 265.827 240.617Z" fill="#2F2E41"/>
<path id="Vector_72" opacity="0.2" d="M265.827 240.617H156.531C155.083 240.617 153.909 241.792 153.909 243.242C153.909 244.691 155.083 245.867 156.531 245.867H265.827C267.275 245.867 268.449 244.691 268.449 243.242C268.449 241.792 267.275 240.617 265.827 240.617Z" fill="black"/>
<path id="Vector_73" d="M129.294 167.177L151.1 214.358C151.37 214.942 151.578 215.552 151.723 216.179C152.797 220.881 156.301 240.324 140.991 241.289C140.991 241.289 131.058 243.359 125.172 226.88C124.119 223.914 123.372 220.848 122.943 217.73C121.735 209.056 118.183 182.523 117.982 168.657C117.982 168.657 107.623 152.297 107.623 146.313C107.623 141.284 109.541 121.682 110.121 115.573C110.145 115.335 110.217 115.105 110.333 114.896C110.449 114.687 110.605 114.504 110.793 114.357C110.981 114.211 111.197 114.104 111.427 114.043C111.658 113.981 111.898 113.968 112.134 114.002V114.002C112.543 114.065 112.917 114.269 113.191 114.58C113.465 114.891 113.622 115.288 113.634 115.702L114.205 138.517C114.205 138.517 125.656 134.247 126.145 140.592C126.145 140.592 130.047 143.402 127.732 146.697C127.732 146.697 129.678 148.287 128.69 151.461C128.69 151.461 130.272 157.706 121.021 156.466C121.021 156.466 128.94 160.006 126.136 167.211L129.294 167.177Z" fill="#F9B499"/>
<path id="Vector_74" d="M116.99 142.321C116.9 142.321 116.812 142.296 116.735 142.249C116.659 142.201 116.598 142.133 116.558 142.052C116.53 141.995 116.514 141.934 116.51 141.871C116.506 141.808 116.515 141.744 116.535 141.684C116.556 141.625 116.588 141.57 116.629 141.522C116.671 141.475 116.722 141.436 116.779 141.409C123.739 138.018 126.011 139.627 126.251 139.824C126.35 139.904 126.413 140.02 126.426 140.147C126.44 140.274 126.403 140.401 126.322 140.501C126.242 140.6 126.126 140.664 125.999 140.677C125.873 140.691 125.746 140.653 125.647 140.573C125.594 140.534 123.547 139.175 117.196 142.273C117.131 142.304 117.061 142.321 116.99 142.321V142.321Z" fill="#F7A48B"/>
<path id="Vector_75" d="M118.087 147.936C117.994 147.936 117.902 147.909 117.824 147.858C117.745 147.807 117.684 147.734 117.646 147.648C117.621 147.59 117.607 147.528 117.605 147.465C117.604 147.402 117.615 147.339 117.637 147.28C117.66 147.221 117.694 147.167 117.738 147.122C117.781 147.076 117.833 147.039 117.891 147.014C124.602 144.017 127.593 145.746 127.717 145.823C127.808 145.894 127.87 145.997 127.892 146.111C127.913 146.224 127.893 146.342 127.835 146.442C127.776 146.542 127.684 146.618 127.574 146.655C127.464 146.692 127.345 146.688 127.238 146.644C127.185 146.615 124.472 145.141 118.293 147.893C118.229 147.922 118.158 147.937 118.087 147.936Z" fill="#F7A48B"/>
<path id="Vector_76" d="M119.425 152.581C119.315 152.581 119.208 152.544 119.123 152.475C119.037 152.407 118.977 152.311 118.954 152.203C118.93 152.096 118.944 151.984 118.993 151.886C119.042 151.787 119.124 151.709 119.223 151.663C125.997 148.522 128.633 150.539 128.743 150.626C128.843 150.705 128.907 150.82 128.922 150.947C128.937 151.073 128.901 151.201 128.822 151.301C128.743 151.401 128.628 151.465 128.502 151.48C128.376 151.495 128.249 151.459 128.149 151.38C128.101 151.341 125.752 149.694 119.626 152.533C119.564 152.564 119.495 152.581 119.425 152.581V152.581Z" fill="#F7A48B"/>
<path id="Vector_77" d="M119.837 240.185C119.533 240.419 119.198 240.608 118.84 240.747C118.345 240.94 117.817 241.034 117.285 241.023C116.754 241.012 116.23 240.896 115.744 240.681C115.257 240.466 114.818 240.157 114.451 239.772C114.084 239.387 113.797 238.933 113.605 238.436L90.2228 177.917C89.9059 177.1 89.8632 176.201 90.101 175.357C90.3388 174.513 90.8443 173.769 91.541 173.239C92.2444 172.704 93.1028 172.414 93.9857 172.413C94.7997 172.414 95.5944 172.661 96.2658 173.122C96.9373 173.583 97.4541 174.236 97.7486 174.997L121.131 235.516C121.449 236.33 121.495 237.225 121.261 238.067C121.028 238.909 120.528 239.652 119.837 240.185Z" fill="#5368DF"/>
<path id="Vector_78" opacity="0.2" d="M119.837 240.185C118.951 240.285 118.057 240.088 117.294 239.626C116.531 239.164 115.942 238.462 115.619 237.629L91.6992 175.727C91.3905 174.935 91.3402 174.066 91.5554 173.244C92.2588 172.709 93.1172 172.419 94.0001 172.417C94.8141 172.418 95.6088 172.665 96.2802 173.127C96.9517 173.588 97.4685 174.241 97.763 175.002L121.146 235.521C121.461 236.335 121.504 237.23 121.268 238.071C121.032 238.912 120.53 239.654 119.837 240.185V240.185Z" fill="white"/>
<path id="Vector_79" d="M108.213 225.843C108.139 225.841 108.068 225.818 108.007 225.776C107.947 225.734 107.9 225.676 107.872 225.607L96.6652 196.308C96.6345 196.219 96.6397 196.12 96.6799 196.035C96.72 195.949 96.7919 195.882 96.8803 195.848C96.9687 195.815 97.0667 195.817 97.1536 195.854C97.2405 195.892 97.3095 195.961 97.3459 196.049L108.558 225.348C108.576 225.393 108.586 225.442 108.585 225.491C108.584 225.54 108.574 225.588 108.554 225.633C108.534 225.678 108.506 225.718 108.47 225.752C108.435 225.785 108.393 225.811 108.347 225.828C108.303 225.84 108.258 225.845 108.213 225.843V225.843Z" fill="white"/>
<path id="Vector_80" d="M126.615 245.439H91.5554C91.2869 245.438 91.0221 245.376 90.7817 245.256C90.5412 245.136 90.3315 244.962 90.1689 244.748C90.0062 244.534 89.8949 244.285 89.8435 244.021C89.7922 243.757 89.8023 243.485 89.8729 243.225L100.164 205.679C100.175 205.621 100.198 205.565 100.231 205.516C100.264 205.467 100.307 205.426 100.357 205.394C100.407 205.363 100.463 205.342 100.522 205.334C100.58 205.325 100.64 205.329 100.697 205.344C100.754 205.36 100.807 205.387 100.853 205.425C100.899 205.462 100.937 205.509 100.964 205.561C100.991 205.614 101.006 205.672 101.01 205.731C101.013 205.79 101.005 205.849 100.984 205.905L90.6974 243.451C90.6594 243.583 90.6528 243.723 90.6781 243.859C90.7034 243.995 90.76 244.123 90.8432 244.233C90.9265 244.343 91.0342 244.432 91.1579 244.493C91.2815 244.554 91.4176 244.585 91.5554 244.584H126.624C126.738 244.584 126.846 244.629 126.926 244.709C127.006 244.79 127.051 244.898 127.051 245.012C127.051 245.125 127.006 245.234 126.926 245.314C126.846 245.394 126.738 245.439 126.624 245.439H126.615Z" fill="white"/>
<path id="Vector_81" d="M300.738 210.4V238.023C300.738 240.038 301.537 241.971 302.959 243.396C304.381 244.821 306.31 245.622 308.321 245.622H323.354C325.347 245.622 327.26 244.836 328.679 243.434C330.098 242.031 330.909 240.126 330.937 238.129L331.32 210.4H300.738Z" fill="#2F2E41"/>
<path id="Vector_82" d="M330.894 215.852C330.894 215.852 340.092 217.543 339.484 224.017C339.484 224.017 339.081 235.723 330.999 235.977V232.831C330.999 232.831 336.67 232.485 336.334 224.128C336.304 223.234 336.013 222.368 335.497 221.638C334.98 220.908 334.261 220.346 333.429 220.021C332.611 219.761 331.748 219.67 330.894 219.752V215.852Z" fill="#2F2E41"/>
<path id="Vector_83" d="M232.114 104.334C236.307 94.6198 231.847 83.3384 222.152 79.1366C212.457 74.9348 201.199 79.4037 197.005 89.1182L188.937 107.81C184.743 117.524 189.203 128.806 198.898 133.007C208.593 137.209 219.852 132.74 224.045 123.026L232.114 104.334Z" fill="#F9B499"/>
<path id="Vector_84" d="M274.781 159.91L269.542 160.28C254.375 144.093 234.449 140.251 234.449 140.251C233.406 138.709 232.052 137.402 230.476 136.414C228.899 135.427 227.134 134.78 225.293 134.516C223.467 127.792 223.807 123.555 223.807 123.555L227.565 114.91C226.669 109.698 220.418 106.197 220.418 106.197C219.575 105.811 218.754 105.378 217.959 104.9C214.225 102.662 211.135 99.4892 208.996 95.6925C200.219 94.1026 203.387 81.1631 203.387 81.1631C199.126 83.9681 197.017 89.1122 197.017 89.1122L194.102 95.9615C180.551 83.0459 189.74 71.7586 189.74 71.7586C203.387 58.574 210.213 71.6385 210.213 71.6385L216.924 72.0035C253.723 67.6087 255.305 102.527 255.305 102.527L258.838 126.216C262.596 154.54 274.781 159.91 274.781 159.91Z" fill="#2F2E41"/>
<path id="Vector_85" opacity="0.2" d="M194.093 95.9614C194.093 95.9614 188.384 69.4386 206.915 73.2235L203.378 81.1727C203.378 81.1727 199.543 83.4013 197.007 89.1218L194.093 95.9614Z" fill="black"/>
<path id="Vector_86" opacity="0.2" d="M217.979 104.895C214.237 102.662 211.141 99.4898 208.996 95.6925C208.996 95.6925 207.409 88.8528 210.577 84.703C210.568 84.703 207.591 97.5609 217.979 104.895Z" fill="black"/>
<path id="Vector_87" opacity="0.2" d="M225.773 111.014C225.773 111.014 226.305 97.2775 220.701 84.3379C220.701 84.3379 226.549 92.0229 227.891 109.607C227.891 109.607 228.414 98.6752 224.057 84.6309C224.057 84.6309 232.138 94.7174 230.801 110.366C230.801 110.366 228.241 111.288 226.966 112.902C226.699 112.199 226.293 111.557 225.773 111.014V111.014Z" fill="black"/>
<path id="Vector_88" opacity="0.2" d="M230.255 80.0439C230.255 80.0439 238.96 86.7683 239.933 112.172C239.933 112.172 239.861 137.537 243.892 143.248C240.818 142.029 237.663 141.028 234.449 140.251C234.449 140.251 231.28 135.366 225.313 134.511C225.313 134.511 223.678 128.459 223.827 123.551L232.114 104.338C232.114 104.338 237.152 95.0441 230.255 80.0439Z" fill="black"/>
<path id="Vector_89" d="M230.796 110.342C231.114 106.325 230.868 102.283 230.063 98.3342C229.675 96.4414 229.093 94.5937 228.328 92.8202C218.511 69.9526 208.861 72.4838 208.861 72.4838C208.861 72.4838 208.617 70.1639 213.736 71.3839C213.736 71.3839 233.72 70.529 234.828 95.558C234.828 95.558 234.947 104.473 231.904 110.087L230.796 110.342Z" fill="#5368DF"/>
<path id="Vector_90" d="M234.723 120.755C237.327 117.018 237.408 112.569 234.903 110.816C232.398 109.063 228.257 110.671 225.653 114.407C223.048 118.144 222.968 122.594 225.472 124.346C227.977 126.099 232.119 124.491 234.723 120.755Z" fill="#FFB190"/>
<path id="Vector_91" d="M225.432 127.311C227.113 127.311 228.476 125.946 228.476 124.261C228.476 122.577 227.113 121.211 225.432 121.211C223.751 121.211 222.389 122.577 222.389 124.261C222.389 125.946 223.751 127.311 225.432 127.311Z" fill="#5368DF"/>
<path id="Vector_92" d="M266.177 170.415H157.279C154.409 170.415 152.083 172.746 152.083 175.621V235.535C152.083 238.411 154.409 240.742 157.279 240.742H266.177C269.047 240.742 271.373 238.411 271.373 235.535V175.621C271.373 172.746 269.047 170.415 266.177 170.415Z" fill="#2F2E41"/>
<path id="Vector_93" opacity="0.2" d="M247.899 170.415L152.083 228.062V216.155L229.095 170.415H247.899Z" fill="white"/>
<path id="Vector_94" opacity="0.2" d="M271.373 177.139V188.82L182.31 240.737H160.955L271.373 177.139Z" fill="white"/>
<path id="Vector_95" d="M316.029 213.148C324.474 213.148 331.32 211.918 331.32 210.401C331.32 208.883 324.474 207.653 316.029 207.653C307.584 207.653 300.738 208.883 300.738 210.401C300.738 211.918 307.584 213.148 316.029 213.148Z" fill="#2F2E41"/>
<path id="Vector_96" opacity="0.2" d="M316.029 213.148C324.474 213.148 331.32 211.918 331.32 210.401C331.32 208.883 324.474 207.653 316.029 207.653C307.584 207.653 300.738 208.883 300.738 210.401C300.738 211.918 307.584 213.148 316.029 213.148Z" fill="black"/>
<path id="Vector_97" d="M350.638 223.475L346.827 243.926H349.334L353.049 223.475H350.638Z" fill="#2E3135"/>
<path id="Vector_98" d="M376.691 223.888L380.497 244.339H377.99L374.275 223.888H376.691Z" fill="#2E3135"/>
<path id="Vector_99" d="M362.991 214.334C362.991 214.334 362.061 205.588 360.762 201.846C360.762 201.846 358.811 196.913 358.624 191.981L357.416 168.445L363.916 182.312C363.916 182.312 367.54 190.223 366.984 202.485C366.984 202.485 366.428 211.611 364.587 214.305L362.991 214.334Z" fill="#5368DF"/>
<path id="Vector_100" d="M391.8 191.913C389.015 194.593 375.981 206.913 365.143 213.206C365.823 211.222 366.285 209.17 366.519 207.086L371.792 202.283C371.792 202.283 377.501 195.794 385.592 193.868C385.917 193.788 386.237 193.688 386.551 193.57L391.627 191.644C391.645 191.633 391.664 191.625 391.685 191.621C391.706 191.618 391.727 191.618 391.747 191.623C391.768 191.627 391.787 191.636 391.804 191.647C391.822 191.659 391.836 191.675 391.848 191.692C391.859 191.71 391.867 191.73 391.87 191.75C391.874 191.771 391.874 191.792 391.869 191.813C391.865 191.833 391.856 191.853 391.844 191.87C391.832 191.887 391.817 191.902 391.8 191.913V191.913Z" fill="#5368DF"/>
<path id="Vector_101" opacity="0.2" d="M391.8 191.913C389.015 194.593 375.981 206.913 365.143 213.206C365.823 211.222 366.285 209.17 366.519 207.086L371.792 202.283C371.792 202.283 377.501 195.794 385.592 193.868C385.917 193.788 386.237 193.688 386.551 193.57L391.627 191.644C391.645 191.633 391.664 191.625 391.685 191.621C391.706 191.618 391.727 191.618 391.747 191.623C391.768 191.627 391.787 191.636 391.804 191.647C391.822 191.659 391.836 191.675 391.848 191.692C391.859 191.71 391.867 191.73 391.87 191.75C391.874 191.771 391.874 191.792 391.869 191.813C391.865 191.833 391.856 191.853 391.844 191.87C391.832 191.887 391.817 191.902 391.8 191.913V191.913Z" fill="#231F20"/>
<path id="Vector_102" d="M362.991 214.334H360.949C360.949 214.334 356.716 207.499 353.001 203.767C352.198 202.974 351.449 202.129 350.758 201.236C350.48 200.871 350.163 200.458 349.828 200.002C347.803 197.326 345.933 194.536 344.229 191.644L335.121 175.986L346.822 185.016C346.822 185.016 355.738 192.182 360.383 204.93C361.653 207.939 362.529 211.1 362.991 214.334V214.334Z" fill="#5368DF"/>
<path id="Vector_103" d="M360.949 214.334H360.206L356.707 211.851C356.18 211.472 355.625 211.133 355.048 210.838C348.62 207.615 337.365 196.909 334.388 194.027C334.348 193.986 334.322 193.933 334.315 193.876C334.308 193.819 334.32 193.762 334.349 193.712C334.378 193.663 334.422 193.625 334.475 193.603C334.528 193.582 334.587 193.579 334.642 193.594C341.233 195.626 349.828 200.021 349.828 200.021C350.163 200.477 350.48 200.89 350.758 201.255C351.449 202.148 352.198 202.994 353.001 203.787C356.711 207.495 360.949 214.334 360.949 214.334Z" fill="#5368DF"/>
<path id="Vector_104" opacity="0.2" d="M360.949 214.334H360.206L356.707 211.851C356.18 211.472 355.625 211.133 355.048 210.838C348.62 207.615 337.365 196.909 334.388 194.027C334.348 193.986 334.322 193.933 334.315 193.876C334.308 193.819 334.32 193.762 334.349 193.712C334.378 193.663 334.422 193.625 334.475 193.603C334.528 193.582 334.587 193.579 334.642 193.594C341.233 195.626 349.828 200.021 349.828 200.021C350.163 200.477 350.48 200.89 350.758 201.255C351.449 202.148 352.198 202.994 353.001 203.787C356.711 207.495 360.949 214.334 360.949 214.334Z" fill="#231F20"/>
<path id="Vector_105" d="M374.04 235.089H353.514L349.823 214.334H376.456L374.04 235.089Z" fill="#A05D3A"/>
<path id="Vector_106" d="M374.04 235.089H353.514L349.823 214.334H376.456L374.04 235.089Z" fill="#3F4347"/>
<path id="Vector_107" d="M377.381 222.245H348.591V224.709H377.381V222.245Z" fill="#2E3135"/>
</g>
</svg>
